<svg version="1.2" xmlns="http://www.w3.org/2000/svg" viewBox="0 0 27 27" width="27" height="27">
	<title>Component 17-svg</title>
	<style>
		.s0 { fill: #000000 } 
		.s1 { fill: none;stroke: #006db6;stroke-linecap: round;stroke-linejoin: round;stroke-width: 3 } 
	</style>
	<path id="Layer" fill-rule="evenodd" class="s0" d="m86.2 23.2q-0.6 0-1.3-0.1-0.7 0-1.5-0.1-0.7-0.1-1.4-0.2-0.6-0.1-1.1-0.2v-21.4q0.6-0.1 1.3-0.2 0.7-0.1 1.4-0.2 0.8-0.1 1.5-0.1 0.7-0.1 1.3-0.1 1.8 0 3.4 0.3 1.6 0.3 2.9 1 1.2 0.7 1.9 1.8 0.7 1.1 0.7 2.7 0 1.8-0.9 3.1-0.9 1.2-2.4 1.7 0.9 0.2 1.7 0.6 0.8 0.4 1.4 1.1 0.6 0.7 0.9 1.6 0.4 0.9 0.4 2.3 0 3.1-2.5 4.8-2.5 1.6-7.7 1.6zm-3.1-10.8v8.7q0.4 0.1 1.4 0.2 1 0 1.9 0 1.5 0 2.9-0.2 1.4-0.1 2.5-0.7 1-0.5 1.7-1.4 0.6-0.9 0.6-2.3 0-1.3-0.5-2.1-0.4-0.8-1.2-1.3-0.9-0.5-2.1-0.7-1.2-0.2-2.6-0.2zm0-1.9h4.2q1.2 0 2.2-0.1 1.1-0.2 1.9-0.7 0.8-0.5 1.2-1.2 0.4-0.8 0.4-2 0-1.1-0.4-1.9-0.5-0.7-1.4-1.2-0.9-0.5-2.1-0.7-1.2-0.2-2.7-0.2-1.2 0-2 0.1-0.8 0-1.3 0.1zm22.8-4.4q1.7 0 2.8 0.4 1.1 0.5 1.8 1.3 0.8 0.8 1.1 1.9 0.3 1.2 0.3 2.5v10.4q-0.3 0.1-0.9 0.2-0.6 0.1-1.4 0.3-0.8 0.1-1.8 0.1-1 0.1-2 0.1-1.3 0-2.5-0.2-1-0.3-1.9-0.9-0.8-0.7-1.3-1.6-0.4-1-0.4-2.4 0-1.4 0.5-2.3 0.5-1 1.5-1.6 0.9-0.7 2.2-0.9 1.2-0.3 2.7-0.3 0.5 0 1 0 0.5 0.1 0.9 0.2 0.5 0 0.8 0.1 0.4 0.1 0.5 0.2v-1.1q0-0.8-0.1-1.6-0.1-0.9-0.6-1.5-0.4-0.7-1.2-1.1-0.8-0.4-2.1-0.4-1.8 0-2.7 0.3-0.9 0.2-1.3 0.4l-0.3-1.8q0.6-0.3 1.7-0.5 1.1-0.2 2.7-0.2zm0.2 15.4q1.2 0 2.1-0.1 1-0.1 1.6-0.2v-5.8q-0.3-0.2-1.1-0.3-0.8-0.2-2.1-0.2-0.8 0-1.6 0.1-0.9 0.1-1.6 0.5-0.7 0.3-1.1 1-0.5 0.6-0.5 1.7 0 0.9 0.3 1.5 0.4 0.7 0.9 1.1 0.6 0.3 1.3 0.5 0.8 0.2 1.8 0.2zm16.7-15.4q1.1 0 2 0.2 0.9 0.1 1.2 0.3l-0.4 1.8q-0.2-0.1-1-0.3-0.8-0.1-2.1-0.1-1.3 0-2.2 0.2-0.8 0.2-1 0.3v14.5h-2.1v-15.8q0.8-0.3 2.2-0.7 1.4-0.4 3.4-0.4zm17.2 15q-0.2 0.1-0.6 0.4-0.4 0.1-1 0.4-0.5 0.2-1.3 0.4-0.7 0.1-1.6 0.1-1.4 0-2.8-0.5-1.3-0.4-2.3-1.4-1-0.9-1.6-2.4-0.6-1.6-0.6-3.7 0-1.8 0.5-3.3 0.6-1.5 1.6-2.6 1-1.1 2.4-1.7 1.5-0.7 3.3-0.7 2.3 0 3.7 0.3 1.4 0.3 2.3 0.6v15.1q0 3.7-1.9 5.3-1.9 1.6-5.8 1.6-1.6 0-2.9-0.2-1.3-0.3-2.2-0.6l0.4-1.9q0.8 0.4 2.1 0.6 1.3 0.3 2.7 0.3 2.9 0 4.2-1.2 1.4-1.1 1.4-3.8zm-0.1-12.6q-0.5-0.2-1.4-0.3-0.9-0.2-2.5-0.2-1.3 0-2.4 0.5-1 0.4-1.7 1.3-0.7 0.8-1.1 2-0.4 1.2-0.4 2.6 0 1.6 0.4 2.8 0.5 1.1 1.2 1.9 0.7 0.7 1.6 1.1 1 0.3 1.9 0.3 1.4 0 2.6-0.4 1.2-0.4 1.8-1zm6.6 6.2q0-2.1 0.6-3.7 0.7-1.7 1.7-2.7 1-1.1 2.3-1.6 1.3-0.6 2.6-0.6 3.1 0 4.9 2 1.8 2 1.8 6.1 0 0.3 0 0.5 0 0.3-0.1 0.5h-11.6q0.1 3 1.5 4.7 1.4 1.6 4.5 1.6 1.7 0 2.7-0.3 1-0.3 1.4-0.6l0.4 1.8q-0.4 0.3-1.7 0.6-1.2 0.4-2.9 0.4-2.1 0-3.7-0.7-1.5-0.6-2.5-1.7-1-1.2-1.4-2.8-0.5-1.6-0.5-3.5zm11.8-1.3q-0.1-2.6-1.3-4-1.1-1.4-3.2-1.4-1.1 0-2 0.4-0.9 0.5-1.6 1.2-0.6 0.8-1 1.8-0.3 0.9-0.4 2zm11 9.9q-1.1 0-1.9-0.3-0.8-0.2-1.3-0.7-0.5-0.5-0.8-1.2-0.3-0.8-0.3-2v-20.5l2.1-0.4v20.8q0 0.8 0.1 1.3 0.2 0.4 0.5 0.7 0.3 0.2 0.7 0.4 0.5 0.1 1.1 0.2zm17.2-0.8q-1 0.3-2.4 0.6-1.4 0.3-3.6 0.3-1.9 0-3.4-0.6-1.5-0.6-2.5-1.7-1.1-1.1-1.7-2.7-0.6-1.6-0.6-3.6 0-1.9 0.5-3.5 0.5-1.6 1.5-2.8 0.9-1.1 2.3-1.7 1.4-0.7 3.2-0.7 1.6 0 2.8 0.5 1.2 0.4 1.8 0.9v-8.9l2.1-0.4zm-2.1-13q-0.3-0.3-0.7-0.5-0.5-0.3-1-0.5-0.6-0.2-1.3-0.4-0.7-0.1-1.4-0.1-1.5 0-2.6 0.5-1 0.6-1.7 1.5-0.6 0.9-0.9 2.1-0.3 1.3-0.3 2.6 0 3.3 1.7 5.1 1.6 1.7 4.3 1.7 1.5 0 2.4-0.1 1-0.2 1.5-0.4zm11.8 13.9q-1.1-0.1-1.9-0.3-0.8-0.3-1.3-0.7-0.5-0.5-0.8-1.3-0.3-0.8-0.3-2v-20.5l2.1-0.4v20.8q0 0.8 0.1 1.3 0.2 0.4 0.5 0.7 0.3 0.3 0.7 0.4 0.5 0.1 1.2 0.2zm18-8.5q0 1.9-0.5 3.5-0.6 1.6-1.6 2.8-1 1.1-2.4 1.7-1.4 0.6-3 0.6-1.7 0-3.1-0.6-1.3-0.6-2.4-1.7-1-1.2-1.5-2.8-0.6-1.6-0.6-3.5 0-2 0.6-3.6 0.5-1.6 1.5-2.7 1.1-1.1 2.4-1.7 1.4-0.7 3.1-0.7 1.6 0 3 0.7 1.4 0.6 2.4 1.7 1 1.1 1.6 2.7 0.5 1.6 0.5 3.6zm-2.2 0q0-3.1-1.4-4.9-1.5-1.9-3.9-1.9-2.5 0-3.9 1.9-1.5 1.8-1.5 4.9 0 3.1 1.5 4.9 1.4 1.8 3.9 1.8 2.4 0 3.9-1.8 1.4-1.8 1.4-4.9zm10.1 6.8q1.8 0 3-0.6 1.2-0.6 1.2-2 0-0.7-0.3-1.2-0.2-0.5-0.6-0.8-0.5-0.4-1.3-0.8-0.8-0.3-1.9-0.8-1-0.4-1.8-0.8-0.8-0.4-1.5-0.9-0.6-0.5-1-1.3-0.4-0.7-0.4-1.8 0-2 1.5-3.2 1.6-1.3 4.2-1.3 1.7 0 2.8 0.3 1.1 0.3 1.6 0.5l-0.5 1.9q-0.4-0.2-1.3-0.5-0.9-0.4-2.7-0.4-0.7 0-1.3 0.2-0.6 0.1-1.1 0.4-0.5 0.3-0.8 0.8-0.3 0.5-0.3 1.1 0 0.7 0.3 1.2 0.2 0.5 0.7 0.9 0.5 0.3 1.2 0.6 0.8 0.3 1.7 0.7 1 0.4 1.8 0.8 0.9 0.4 1.6 1 0.7 0.5 1.1 1.3 0.4 0.8 0.4 2 0 2.2-1.7 3.4-1.7 1.1-4.6 1.1-2.1 0-3.3-0.4-1.1-0.3-1.5-0.5l0.5-1.9q0.1 0.1 0.4 0.2 0.3 0.2 0.9 0.4 0.5 0.1 1.3 0.2 0.7 0.2 1.7 0.2zm9.3-6.8q0-2.2 0.6-3.8 0.7-1.7 1.7-2.7 1-1.1 2.3-1.6 1.3-0.6 2.7-0.6 3 0 4.8 2 1.8 2 1.8 6.1 0 0.3 0 0.5 0 0.3 0 0.5h-11.7q0.1 3 1.5 4.7 1.5 1.6 4.5 1.6 1.7 0 2.7-0.3 1-0.3 1.5-0.6l0.3 1.8q-0.4 0.3-1.7 0.6-1.2 0.4-2.8 0.4-2.2 0-3.7-0.6-1.6-0.7-2.6-1.8-1-1.2-1.4-2.8-0.5-1.6-0.5-3.4zm11.8-1.4q-0.1-2.5-1.2-4-1.2-1.4-3.3-1.4-1.1 0-2 0.4-0.9 0.5-1.6 1.2-0.6 0.8-1 1.8-0.3 1-0.4 2zm12.4-7.2q1 0 1.9 0.1 1 0.2 1.3 0.4l-0.4 1.8q-0.3-0.2-1.1-0.3-0.7-0.2-2-0.2-1.3 0-2.2 0.2-0.8 0.2-1 0.3v14.5h-2.1v-15.7q0.8-0.4 2.2-0.7 1.4-0.4 3.4-0.4zm19.1 17q-0.6 0-1.3 0-0.7-0.1-1.5-0.2-0.7 0-1.4-0.1-0.7-0.1-1.1-0.3v-21.3q0.5-0.2 1.2-0.3 0.7-0.1 1.5-0.2 0.8-0.1 1.5-0.1 0.7 0 1.3 0 1.8 0 3.4 0.3 1.6 0.3 2.8 0.9 1.3 0.7 2 1.8 0.7 1.1 0.7 2.7 0 1.8-0.9 3.1-0.9 1.3-2.5 1.7 1 0.3 1.8 0.7 0.8 0.4 1.4 1.1 0.6 0.6 0.9 1.6 0.4 0.9 0.4 2.2 0 3.1-2.5 4.8-2.5 1.6-7.7 1.6zm-3.2-10.8v8.8q0.5 0 1.5 0.1 0.9 0.1 1.9 0.1 1.5 0 2.9-0.2 1.4-0.2 2.4-0.7 1.1-0.5 1.7-1.4 0.7-0.9 0.7-2.3 0-1.3-0.5-2.1-0.4-0.9-1.2-1.4-0.9-0.5-2.1-0.7-1.2-0.2-2.7-0.2zm0-1.8h4.3q1.2 0 2.2-0.2 1.1-0.2 1.8-0.6 0.8-0.5 1.3-1.3 0.4-0.8 0.4-2 0-1.1-0.4-1.8-0.5-0.8-1.4-1.3-0.9-0.5-2.1-0.6-1.2-0.3-2.7-0.3-1.2 0-2 0.1-0.8 0.1-1.4 0.2zm16.9 4.1q0-2.1 0.6-3.7 0.7-1.7 1.6-2.7 1.1-1.1 2.4-1.6 1.3-0.6 2.6-0.6 3.1 0 4.9 2 1.8 2 1.8 6.1 0 0.3 0 0.5 0 0.3-0.1 0.5h-11.6q0.1 3 1.5 4.7 1.4 1.6 4.5 1.6 1.7 0 2.7-0.3 1-0.3 1.4-0.6l0.4 1.8q-0.4 0.3-1.7 0.6-1.2 0.4-2.9 0.4-2.1 0-3.7-0.7-1.5-0.6-2.5-1.7-1-1.2-1.4-2.8-0.5-1.6-0.5-3.5zm11.8-1.3q-0.1-2.6-1.3-4-1.1-1.4-3.2-1.4-1.1 0-2 0.4-0.9 0.5-1.6 1.2-0.6 0.8-1 1.8-0.4 0.9-0.4 2zm8.7-6.9h6.6v1.8h-6.6v8.8q0 1.4 0.2 2.3 0.3 0.8 0.7 1.3 0.5 0.5 1.1 0.6 0.7 0.2 1.4 0.2 1.3 0 2.1-0.3 0.8-0.3 1.3-0.6l0.5 1.8q-0.4 0.3-1.6 0.6-1.1 0.4-2.4 0.4-1.5 0-2.6-0.4-1-0.4-1.6-1.2-0.7-0.8-0.9-2.1-0.3-1.2-0.3-2.8v-15.3l2.1-0.4zm16.1-0.3q1 0 1.9 0.2 0.9 0.1 1.3 0.3l-0.5 1.8q-0.2-0.1-1-0.3-0.8-0.1-2.1-0.1-1.3 0-2.1 0.2-0.8 0.2-1.1 0.3v14.5h-2.1v-15.8q0.8-0.3 2.2-0.7 1.5-0.4 3.5-0.4zm8.4 16.9h-2.1v-16.6h2.1zm0.5-21.5q0 0.7-0.5 1.2-0.4 0.4-1.1 0.4-0.6 0-1.1-0.4-0.4-0.5-0.4-1.2 0-0.7 0.4-1.1 0.5-0.5 1.1-0.5 0.7 0 1.1 0.5 0.5 0.4 0.5 1.1zm4 13.3q0-2.2 0.6-3.8 0.7-1.7 1.6-2.7 1.1-1.1 2.3-1.6 1.4-0.6 2.7-0.6 3.1 0 4.9 2 1.8 2 1.8 6.1 0 0.3 0 0.5 0 0.3-0.1 0.5h-11.6q0.1 3 1.5 4.7 1.4 1.6 4.5 1.6 1.7 0 2.7-0.3 1-0.3 1.4-0.6l0.4 1.8q-0.4 0.3-1.7 0.6-1.2 0.4-2.9 0.4-2.1 0-3.7-0.6-1.5-0.7-2.5-1.8-1-1.2-1.4-2.8-0.5-1.6-0.5-3.4zm11.7-1.4q0-2.5-1.2-4-1.1-1.4-3.2-1.4-1.2 0-2 0.4-0.9 0.5-1.6 1.2-0.6 0.8-1 1.8-0.4 1-0.4 2zm8.8-5.9q0.6-0.4 1.8-0.9 1.2-0.5 2.8-0.5 1.8 0 3.2 0.7 1.4 0.6 2.3 1.8 1 1.1 1.5 2.7 0.5 1.6 0.5 3.5 0 2-0.6 3.6-0.6 1.6-1.7 2.7-1 1.1-2.5 1.8-1.5 0.5-3.3 0.5-2.2 0-3.7-0.3-1.4-0.2-2.3-0.6v-23.9l2-0.4zm0 13.6q0.5 0.2 1.4 0.3 1 0.2 2.5 0.2 2.7 0 4.4-1.8 1.6-1.7 1.6-5 0-1.4-0.3-2.6-0.3-1.2-0.9-2.1-0.7-1-1.7-1.5-1-0.5-2.6-0.5-0.7 0-1.4 0.1-0.7 0.1-1.2 0.4-0.6 0.2-1.1 0.4-0.4 0.3-0.7 0.5z"/>
	<path id="Layer" class="s1" d="m13.5 14l11 11-22-22"/>
	<path id="Layer" class="s1" d="m13.5 14l-11 11 22-22"/>
</svg>