<svg version="1.2" xmlns="http://www.w3.org/2000/svg" viewBox="0 0 35 36" width="35" height="36">
	<title>Component 18-svg</title>
	<style>
		.s0 { fill: #000000 } 
		.s1 { fill: none;stroke: #006db6;stroke-linecap: round;stroke-linejoin: round;stroke-width: 3 } 
	</style>
	<path id="Layer" fill-rule="evenodd" class="s0" d="m99.8 27q-0.6-1.6-1.2-3.1-0.5-1.5-1-3h-10.8q-0.5 1.5-1.1 3-0.5 1.5-1.1 3.1h-2.3q1.3-3.5 2.4-6.4 1.1-3 2.2-5.7 1.1-2.7 2.1-5.1 1.1-2.5 2.3-5h1.9q1.2 2.5 2.2 5 1.1 2.4 2.2 5.1 1 2.7 2.2 5.7 1.1 2.9 2.4 6.4zm-7.6-19.7q-1.2 2.8-2.4 5.6-1.1 2.9-2.3 6.2h9.4q-1.2-3.3-2.4-6.2-1.1-2.8-2.3-5.6zm25.8 19.1q-1 0.3-2.5 0.6-1.6 0.3-3.9 0.3-1.8 0-3.1-0.5-1.2-0.6-2-1.6-0.8-1-1.1-2.4-0.3-1.4-0.3-3.1v-9.2h2v8.6q0 1.7 0.3 2.9 0.3 1.3 0.8 2 0.6 0.8 1.5 1.1 0.9 0.3 2.2 0.3 1.5 0 2.6-0.1 1.1-0.2 1.4-0.3v-14.5h2.1zm7.4-16h6.6v1.7h-6.6v8.8q0 1.5 0.2 2.4 0.3 0.8 0.8 1.3 0.4 0.5 1 0.6 0.7 0.2 1.4 0.2 1.4 0 2.2-0.3 0.8-0.3 1.2-0.6l0.5 1.8q-0.4 0.2-1.5 0.6-1.2 0.4-2.5 0.4-1.5 0-2.6-0.4-1-0.4-1.6-1.2-0.6-0.8-0.9-2.1-0.3-1.2-0.3-2.8v-15.3l2.1-0.4zm24.6 8.3q0 2-0.6 3.6-0.6 1.6-1.6 2.7-1 1.1-2.4 1.8-1.3 0.6-3 0.6-1.7 0-3-0.6-1.4-0.7-2.4-1.8-1-1.1-1.6-2.7-0.5-1.6-0.5-3.6 0-1.9 0.5-3.5 0.6-1.6 1.6-2.7 1-1.2 2.4-1.8 1.3-0.6 3-0.6 1.7 0 3 0.6 1.4 0.6 2.4 1.8 1 1.1 1.6 2.7 0.6 1.6 0.6 3.5zm-2.3 0q0-3.1-1.4-4.9-1.4-1.9-3.9-1.9-2.5 0-3.9 1.9-1.4 1.8-1.4 4.9 0 3.1 1.4 5 1.4 1.8 3.9 1.8 2.5 0 3.9-1.8 1.4-1.9 1.4-5zm6.8-7.7q0.9-0.2 2.4-0.6 1.5-0.3 3.8-0.3 3.2 0 4.6 1.8 0.1-0.1 0.6-0.4 0.5-0.3 1.2-0.6 0.7-0.3 1.6-0.6 1-0.2 2.1-0.2 1.9 0 3.1 0.6 1.1 0.5 1.8 1.6 0.6 1 0.9 2.4 0.2 1.4 0.2 3v9.3h-2.1v-8.6q0-1.6-0.2-2.8-0.1-1.2-0.5-2-0.5-0.8-1.3-1.2-0.8-0.4-2-0.4-1 0-1.8 0.2-0.8 0.2-1.3 0.4-0.6 0.3-1 0.5-0.4 0.3-0.5 0.4 0.3 0.8 0.4 1.9 0.2 1 0.2 2.2v9.4h-2.1v-8.6q0-1.6-0.2-2.8-0.1-1.2-0.6-2-0.4-0.8-1.2-1.2-0.8-0.4-2.2-0.4-1.5 0-2.5 0.2-1.1 0.1-1.3 0.3v14.5h-2.1zm32.6-1q1.7 0 2.8 0.5 1.1 0.5 1.8 1.3 0.7 0.8 1.1 1.9 0.3 1.1 0.3 2.4v10.5q-0.3 0.1-1 0.2-0.6 0.1-1.4 0.2-0.8 0.1-1.8 0.2-0.9 0.1-1.9 0.1-1.4 0-2.5-0.3-1.1-0.3-1.9-0.9-0.8-0.6-1.3-1.6-0.4-1-0.4-2.4 0-1.3 0.5-2.3 0.5-0.9 1.4-1.6 1-0.6 2.2-0.9 1.3-0.3 2.8-0.3 0.5 0 1 0.1 0.5 0 0.9 0.1 0.5 0.1 0.8 0.2 0.4 0 0.5 0.1v-1q0-0.9-0.1-1.7-0.2-0.8-0.6-1.4-0.4-0.7-1.2-1.1-0.8-0.4-2.1-0.4-1.8 0-2.7 0.2-0.9 0.3-1.3 0.5l-0.3-1.9q0.5-0.2 1.7-0.5 1.1-0.2 2.7-0.2zm0.2 15.4q1.2 0 2.1 0 1-0.1 1.6-0.2v-5.9q-0.4-0.1-1.1-0.3-0.8-0.2-2.1-0.2-0.8 0-1.6 0.2-0.9 0-1.6 0.4-0.7 0.4-1.1 1-0.5 0.7-0.5 1.7 0 0.9 0.3 1.6 0.3 0.6 0.9 1 0.6 0.4 1.3 0.6 0.8 0.1 1.8 0.1zm13-15h6.6v1.8h-6.6v8.8q0 1.4 0.3 2.3 0.2 0.8 0.7 1.3 0.4 0.5 1 0.7 0.7 0.1 1.5 0.1 1.3 0 2.1-0.3 0.8-0.3 1.2-0.5l0.5 1.7q-0.4 0.3-1.5 0.7-1.2 0.3-2.5 0.3-1.5 0-2.6-0.4-1-0.4-1.6-1.2-0.6-0.8-0.9-2-0.3-1.3-0.3-2.9v-15.3l2.1-0.3zm12.5 16.5h-2v-16.5h2zm0.5-21.6q0 0.8-0.4 1.2-0.5 0.4-1.1 0.4-0.7 0-1.1-0.4-0.5-0.4-0.5-1.2 0-0.7 0.5-1.1 0.4-0.5 1.1-0.5 0.6 0 1.1 0.5 0.4 0.4 0.4 1.1zm8.4 20.1q1.8 0 3-0.6 1.2-0.6 1.2-2 0-0.7-0.3-1.2-0.2-0.4-0.6-0.8-0.5-0.4-1.3-0.8-0.8-0.3-1.9-0.8-1-0.4-1.8-0.8-0.8-0.4-1.5-0.9-0.6-0.5-1-1.3-0.4-0.7-0.4-1.8 0-2 1.5-3.2 1.6-1.3 4.2-1.3 1.7 0 2.8 0.3 1.1 0.3 1.6 0.5l-0.5 1.9q-0.4-0.2-1.3-0.5-0.9-0.3-2.7-0.3-0.7 0-1.3 0.1-0.6 0.1-1.1 0.5-0.5 0.3-0.8 0.7-0.3 0.5-0.3 1.2 0 0.6 0.3 1.1 0.3 0.5 0.7 0.9 0.5 0.3 1.2 0.6 0.8 0.4 1.7 0.7 1 0.4 1.8 0.8 0.9 0.4 1.6 1 0.7 0.5 1.1 1.3 0.4 0.8 0.4 2 0 2.2-1.7 3.4-1.7 1.1-4.6 1.1-2.1 0-3.3-0.3-1.1-0.4-1.5-0.6l0.5-1.9q0.1 0.1 0.4 0.3 0.4 0.1 0.9 0.3 0.5 0.1 1.3 0.3 0.7 0.1 1.7 0.1zm12.4 1.5h-2.1v-16.6h2.1zm0.5-21.5q0 0.7-0.5 1.2-0.4 0.4-1 0.4-0.7 0-1.1-0.4-0.5-0.5-0.5-1.2 0-0.8 0.5-1.2 0.4-0.4 1.1-0.4 0.6 0 1 0.4 0.5 0.4 0.5 1.2zm4 13.2q0-2.1 0.6-3.7 0.7-1.7 1.7-2.8 1-1.1 2.3-1.6 1.3-0.5 2.7-0.5 3 0 4.8 2 1.8 2 1.8 6.1 0 0.2 0 0.5 0 0.3 0 0.5h-11.7q0.1 3 1.5 4.6 1.5 1.7 4.5 1.7 1.7 0 2.7-0.3 1-0.4 1.5-0.6l0.3 1.8q-0.4 0.3-1.7 0.6-1.2 0.4-2.8 0.4-2.2 0-3.7-0.7-1.6-0.6-2.6-1.8-1-1.1-1.4-2.7-0.5-1.6-0.5-3.5zm11.8-1.3q-0.1-2.6-1.2-4-1.2-1.5-3.3-1.5-1.1 0-2 0.5-0.9 0.4-1.6 1.2-0.6 0.7-1 1.7-0.3 1-0.4 2.1zm12.4-7.2q1 0 1.9 0.1 1 0.2 1.3 0.3l-0.4 1.8q-0.3-0.1-1.1-0.2-0.7-0.2-2-0.2-1.3 0-2.2 0.2-0.8 0.2-1 0.3v14.5h-2.1v-15.8q0.8-0.3 2.2-0.7 1.4-0.3 3.4-0.3zm8.3 0.3h6.6v1.7h-6.6v8.8q0 1.4 0.2 2.3 0.3 0.9 0.7 1.4 0.5 0.5 1.1 0.6 0.7 0.2 1.4 0.2 1.3 0 2.1-0.3 0.8-0.3 1.3-0.6l0.5 1.7q-0.4 0.3-1.6 0.7-1.1 0.4-2.4 0.4-1.5 0-2.6-0.4-1-0.4-1.7-1.2-0.6-0.9-0.8-2.1-0.3-1.2-0.3-2.9v-15.2l2.1-0.4zm9.4 8.3q0-2.2 0.6-3.8 0.7-1.6 1.7-2.7 1-1.1 2.3-1.6 1.3-0.6 2.7-0.6 3 0 4.8 2 1.8 2 1.8 6.1 0 0.3 0 0.5 0 0.3 0 0.5h-11.7q0.1 3.1 1.5 4.7 1.5 1.6 4.5 1.6 1.7 0 2.7-0.3 1-0.3 1.5-0.5l0.3 1.8q-0.4 0.2-1.7 0.6-1.2 0.3-2.8 0.3-2.2 0-3.7-0.6-1.6-0.7-2.6-1.8-1-1.2-1.4-2.7-0.5-1.6-0.5-3.5zm11.8-1.3q-0.1-2.6-1.2-4.1-1.2-1.4-3.3-1.4-1.1 0-2 0.4-0.9 0.5-1.6 1.3-0.6 0.7-1 1.7-0.3 1-0.4 2.1zm29.1 9.6q-0.6-1.7-1.1-3.2-0.6-1.5-1.1-2.9h-10.8q-0.5 1.4-1.1 2.9-0.5 1.5-1.1 3.2h-2.3q1.3-3.5 2.4-6.5 1.2-3 2.2-5.6 1.1-2.7 2.2-5.2 1-2.4 2.2-4.9h1.9q1.2 2.5 2.3 4.9 1 2.5 2.1 5.2 1.1 2.6 2.2 5.6 1.1 3 2.4 6.5zm-7.6-19.7q-1.2 2.7-2.4 5.6-1.1 2.8-2.3 6.1h9.4q-1.2-3.3-2.3-6.1-1.2-2.9-2.4-5.6zm15.2 4.1q0.5-0.4 1.7-0.8 1.2-0.5 2.8-0.5 1.8 0 3.2 0.6 1.4 0.7 2.4 1.8 0.9 1.2 1.4 2.8 0.5 1.5 0.5 3.4 0 2-0.6 3.6-0.6 1.6-1.7 2.7-1 1.2-2.5 1.8-1.5 0.6-3.3 0.6-2.2 0-3.7-0.3-1.4-0.3-2.3-0.6v-24l2.1-0.4zm0 13.6q0.4 0.2 1.4 0.4 0.9 0.1 2.5 0.1 2.6 0 4.3-1.7 1.6-1.8 1.6-5.1 0-1.3-0.3-2.6-0.3-1.2-0.9-2.1-0.6-0.9-1.7-1.5-1-0.5-2.6-0.5-0.7 0-1.4 0.1-0.6 0.2-1.2 0.4-0.6 0.2-1 0.5-0.5 0.2-0.7 0.5zm22.2-15q1 0 1.9 0.2 0.9 0.2 1.3 0.3l-0.5 1.8q-0.2-0.1-1-0.2-0.8-0.2-2.1-0.2-1.3 0-2.1 0.2-0.8 0.2-1.1 0.3v14.5h-2.1v-15.8q0.8-0.3 2.2-0.7 1.4-0.4 3.5-0.4zm5.3 8.6q0-2.2 0.6-3.8 0.7-1.6 1.6-2.7 1.1-1.1 2.3-1.6 1.4-0.5 2.7-0.5 3.1 0 4.9 2 1.8 1.9 1.8 6.1 0 0.2 0 0.5 0 0.2-0.1 0.5h-11.6q0.1 3 1.5 4.6 1.4 1.7 4.5 1.7 1.7 0 2.7-0.4 1-0.3 1.4-0.5l0.4 1.8q-0.4 0.3-1.7 0.6-1.2 0.4-2.9 0.4-2.1 0-3.7-0.7-1.5-0.6-2.5-1.8-1-1.1-1.4-2.7-0.5-1.6-0.5-3.5zm11.7-1.3q0-2.6-1.2-4-1.1-1.5-3.2-1.5-1.2 0-2 0.5-0.9 0.4-1.6 1.2-0.6 0.7-1 1.7-0.4 1-0.4 2.1zm13.6 10q-1.9 0-3.4-0.7-1.5-0.6-2.5-1.7-0.9-1.1-1.4-2.7-0.5-1.6-0.5-3.5 0-2 0.5-3.6 0.5-1.6 1.5-2.7 1-1.2 2.4-1.8 1.4-0.6 3.2-0.6 1.3 0 2.5 0.2 1.2 0.2 1.8 0.6l-0.5 1.8q-0.7-0.4-1.5-0.5-0.8-0.2-2.1-0.2-2.8 0-4.2 1.8-1.4 1.7-1.4 5 0 1.5 0.3 2.7 0.3 1.2 1 2.1 0.8 0.9 1.9 1.4 1.1 0.5 2.8 0.5 1.3 0 2.2-0.3 0.9-0.3 1.3-0.6l0.5 1.8q-0.6 0.3-1.8 0.6-1.3 0.4-2.6 0.4zm7.9-0.4v-24.4l2.1-0.4v8.7q1-0.3 2-0.5 1.1-0.3 2.1-0.3 2 0 3.2 0.6 1.3 0.5 2.1 1.6 0.8 0.9 1 2.4 0.4 1.4 0.4 3.1v9.2h-2.1v-8.6q0-1.7-0.3-2.9-0.2-1.3-0.8-2-0.5-0.8-1.4-1.1-1-0.4-2.4-0.4-0.5 0-1.2 0.1-0.6 0.1-1.1 0.2-0.6 0.1-1 0.3-0.4 0.1-0.5 0.2v14.2zm18.2-16q0.9-0.2 2.5-0.5 1.5-0.4 3.8-0.4 1.9 0 3.1 0.6 1.3 0.5 2.1 1.6 0.7 0.9 1 2.4 0.4 1.4 0.4 3.1v9.2h-2.1v-8.6q0-1.7-0.3-2.9-0.2-1.3-0.8-2-0.5-0.8-1.4-1.1-0.9-0.4-2.3-0.4-1.5 0-2.6 0.2-1 0.1-1.3 0.3v14.5h-2.1zm30.9 15.4q-0.9 0.3-2.5 0.6-1.6 0.3-3.8 0.3-1.9 0-3.1-0.6-1.3-0.5-2.1-1.5-0.7-1-1.1-2.4-0.3-1.4-0.3-3.1v-9.3h2.1v8.6q0 1.8 0.2 3 0.3 1.2 0.9 2 0.5 0.7 1.4 1.1 1 0.3 2.3 0.3 1.5 0 2.5-0.2 1.1-0.1 1.4-0.2v-14.6h2.1zm5.5-15.4q0.9-0.2 2.5-0.5 1.6-0.4 3.8-0.4 1.9 0 3.2 0.6 1.3 0.5 2 1.6 0.8 0.9 1.1 2.4 0.3 1.4 0.3 3.1v9.2h-2.1v-8.6q0-1.7-0.2-2.9-0.3-1.3-0.8-2-0.6-0.8-1.5-1.1-0.9-0.4-2.3-0.4-1.4 0-2.5 0.2-1.1 0.1-1.4 0.3v14.5h-2.1zm29 14.1q-0.2 0.1-0.6 0.3-0.3 0.2-0.9 0.5-0.6 0.2-1.3 0.3-0.7 0.2-1.6 0.2-1.4 0-2.8-0.5-1.3-0.4-2.4-1.4-0.9-1-1.6-2.5-0.6-1.5-0.6-3.7 0-1.7 0.6-3.2 0.5-1.5 1.5-2.6 1-1.1 2.5-1.8 1.5-0.6 3.3-0.6 2.3 0 3.7 0.3 1.4 0.3 2.3 0.6v15.1q0 3.7-2 5.3-1.9 1.6-5.8 1.6-1.6 0-2.9-0.3-1.2-0.2-2.2-0.5l0.4-1.9q0.8 0.4 2.1 0.6 1.4 0.3 2.7 0.3 3 0 4.3-1.2 1.3-1.1 1.3-3.9zm0-12.6q-0.6-0.1-1.4-0.3-0.9-0.1-2.5-0.1-1.3 0-2.4 0.5-1 0.4-1.8 1.3-0.7 0.8-1.1 2-0.4 1.1-0.4 2.6 0 1.6 0.5 2.8 0.4 1.1 1.1 1.9 0.8 0.7 1.7 1 0.9 0.4 1.9 0.4 1.4 0 2.6-0.5 1.1-0.4 1.8-0.9z"/>
	<path id="Layer" class="s1" d="m17.4 18h15.6-31"/>
	<path id="Layer" class="s1" d="m17.5 17.9v15.6-31"/>
</svg>