<svg width="1919" height="754" viewBox="0 0 1919 754" fill="none" xmlns="http://www.w3.org/2000/svg">
<g clip-path="url(#clip0_132_947)">
<path fill-rule="evenodd" clip-rule="evenodd" d="M1934.68 297.622L1846.54 297.913C1758.4 298.205 1582.12 298.788 1405.88 315.718C1229.64 332.648 1053.43 365.925 877.273 417.885C701.111 469.844 524.982 535.816 348.82 587.775C172.658 639.735 -3.54684 673.012 -180.02 589.524C-356.493 506.037 -533.235 305.784 -709.595 271.338C-885.951 239.227 -1061.92 372.922 -1149.91 440.937L-1237.89 508.952L-1239.05 4.5281L-1150.91 4.23658C-1062.77 3.94506 -886.493 3.36201 -710.213 2.77897C-533.933 2.19593 -357.653 1.61289 -181.373 1.02984C-5.09312 0.446801 171.187 -0.136241 347.467 -0.719284C523.747 -1.30233 700.027 -1.88537 876.306 -2.46841C1052.59 -3.05145 1228.87 -3.6345 1405.15 -4.21754C1581.43 -4.80058 1757.71 -5.38362 1845.85 -5.67515L1933.99 -5.96667L1934.68 297.622Z" fill="#0099FF"/>
<path fill-rule="evenodd" clip-rule="evenodd" d="M-204 170.59L-94.5553 251.823C14.8891 333.057 233.778 495.524 452.667 563.533C671.556 631.543 890.445 550.309 1109.33 563.533C1328.22 576.757 1437.11 667.448 1656 641C1874.89 612.663 2117.11 303.347 2336 207C2554.89 112.542 2860.44 251.823 3079.33 197.038C3298.22 142.252 3517.11 115.804 3626.56 102.58L3736 87.467V-75H3626.56C3517.11 -75 3298.22 -75 3079.33 -75C2860.44 -75 2641.56 -75 2422.67 -75C2203.78 -75 1984.89 -75 1766 -75C1547.11 -75 1328.22 -75 1109.33 -75C890.445 -75 671.556 -75 452.667 -75C233.778 -75 14.8891 -75 -94.5553 -75H-204V170.59Z" fill="#007EC4" fill-opacity="0.62"/>
<path fill-rule="evenodd" clip-rule="evenodd" d="M-550 641L-431.583 544.9C-313.166 450.684 -76.3331 260.368 160.5 273.558C397.334 288.632 634.167 505.329 871 573.164C1107.83 641 1344.67 559.974 1581.5 477.064C1818.33 396.039 2055.17 315.013 2173.58 273.558L2292 233.987V-92H2173.58C2055.17 -92 1818.33 -92 1581.5 -92C1344.67 -92 1107.83 -92 871 -92C634.167 -92 397.334 -92 160.5 -92C-76.3331 -92 -313.166 -92 -431.583 -92H-550V641Z" fill="url(#paint0_linear_132_947)"/>
</g>
<defs>
<linearGradient id="paint0_linear_132_947" x1="871.451" y1="-150.582" x2="871.24" y2="641" gradientUnits="userSpaceOnUse">
<stop stop-color="#31307C"/>
<stop offset="0.473958" stop-color="#31307C" stop-opacity="0.26"/>
<stop offset="1" stop-color="#31307C" stop-opacity="0"/>
</linearGradient>
<clipPath id="clip0_132_947">
<rect width="1934" height="754" fill="white"/>
</clipPath>
</defs>
</svg>
