<svg width="202" height="48" viewBox="0 0 202 48" fill="none" xmlns="http://www.w3.org/2000/svg">
<path d="M76.2738 15.2495C77.5416 19.4756 78.8094 23.3213 80.0772 26.7866C81.3451 30.252 82.6129 33.3793 83.8384 36.253C84.7259 33.1257 85.6556 29.4913 86.5854 25.2653C87.5151 21.0392 88.4026 16.6018 89.2478 11.8687H91.9102C91.4031 14.7001 90.9382 17.3625 90.4733 19.8136C90.0085 22.2648 89.5013 24.6313 88.952 26.8712C88.4026 29.111 87.8532 31.224 87.2615 33.2948C86.6699 35.3233 86.036 37.3518 85.3598 39.338H82.4438C81.8099 37.8166 81.2183 36.3375 80.5844 34.8161C79.9505 33.2948 79.3588 31.7734 78.7249 30.1675C78.1332 28.5616 77.4993 26.9134 76.9077 25.1807C76.316 23.448 75.6821 21.5886 75.0482 19.6446C74.4143 21.5886 73.7804 23.448 73.1888 25.1807C72.5549 26.9134 71.9632 28.6038 71.3716 30.2097C70.7799 31.8156 70.146 33.337 69.5121 34.8584C68.8782 36.3798 68.2443 37.8589 67.6104 39.338H64.7789C64.0605 37.3518 63.4266 35.3233 62.7927 33.2948C62.201 31.2663 61.6516 29.111 61.1445 26.8712C60.6374 24.6313 60.1302 22.307 59.6654 19.8136C59.2005 17.3625 58.7356 14.7001 58.2285 11.8687H61.0177C61.4403 14.193 61.8207 16.4751 62.2433 18.7149C62.6659 20.9547 63.0885 23.11 63.5533 25.1807C64.0182 27.2515 64.4831 29.2377 64.9902 31.0972C65.4551 32.9567 65.9622 34.6894 66.4693 36.253C67.6104 33.337 68.7937 30.1675 70.1037 26.7444C71.4138 23.3213 72.6816 19.4756 73.9495 15.2495H76.2738Z" fill="white"/>
<path d="M93.769 29.0691C93.769 27.2942 94.0226 25.7305 94.5297 24.3782C95.0369 23.0258 95.713 21.9271 96.5582 21.0396C97.4035 20.1521 98.3332 19.4759 99.3897 19.0533C100.446 18.6307 101.545 18.4194 102.686 18.4194C105.179 18.4194 107.208 19.2224 108.687 20.8705C110.166 22.5187 110.927 25.0121 110.927 28.4352C110.927 28.6465 110.927 28.8578 110.927 29.0691C110.927 29.2804 110.885 29.4917 110.885 29.6607H96.516C96.6005 32.1541 97.2344 34.0981 98.3754 35.4504C99.5165 36.8028 101.376 37.479 103.912 37.479C105.306 37.479 106.405 37.3522 107.25 37.0986C108.053 36.845 108.645 36.5915 109.025 36.4224L109.49 38.62C109.11 38.8313 108.433 39.0849 107.419 39.3807C106.405 39.6765 105.222 39.8033 103.827 39.8033C102.052 39.8033 100.488 39.5497 99.2207 39.0003C97.9528 38.4509 96.8963 37.7325 96.0934 36.8028C95.2904 35.873 94.6988 34.732 94.3184 33.4219C93.9803 32.0696 93.769 30.6327 93.769 29.0691ZM108.307 27.4209C108.264 25.2656 107.757 23.6175 106.785 22.4342C105.856 21.2509 104.503 20.6592 102.728 20.6592C101.799 20.6592 100.996 20.8283 100.235 21.2086C99.5165 21.589 98.8826 22.0538 98.3332 22.6878C97.7838 23.3217 97.3612 24.0401 97.0654 24.843C96.7695 25.646 96.6005 26.5335 96.516 27.4209H108.307Z" fill="white"/>
<path d="M131.086 15.2495C132.353 19.4756 133.621 23.3213 134.889 26.7866C136.157 30.252 137.425 33.3793 138.65 36.253C139.538 33.1257 140.467 29.4913 141.397 25.2653C142.327 21.0392 143.214 16.6018 144.06 11.8687H146.722C146.215 14.7001 145.75 17.3625 145.285 19.8136C144.82 22.2648 144.313 24.6313 143.764 26.8712C143.214 29.111 142.665 31.224 142.073 33.2948C141.482 35.3233 140.848 37.3518 140.172 39.338H137.256C136.622 37.8166 136.03 36.3375 135.396 34.8161C134.762 33.2948 134.171 31.7734 133.537 30.1675C132.945 28.5616 132.311 26.9134 131.719 25.1807C131.128 23.448 130.494 21.5886 129.86 19.6446C129.226 21.5886 128.592 23.448 128.001 25.1807C127.367 26.9134 126.775 28.6038 126.183 30.2097C125.592 31.8156 124.958 33.337 124.324 34.8584C123.69 36.3798 123.056 37.8589 122.422 39.338H119.591C118.872 37.3518 118.238 35.3233 117.604 33.2948C117.013 31.2663 116.463 29.111 115.956 26.8712C115.449 24.6313 114.942 22.307 114.477 19.8136C114.012 17.3625 113.547 14.7001 113.04 11.8687H115.829C116.252 14.193 116.632 16.4751 117.055 18.7149C117.478 20.9547 117.9 23.11 118.365 25.1807C118.83 27.2515 119.295 29.2377 119.802 31.0972C120.267 32.9567 120.774 34.6894 121.281 36.253C122.422 33.337 123.605 30.1675 124.916 26.7444C126.226 23.3213 127.493 19.4756 128.761 15.2495H131.086Z" fill="white"/>
<path d="M155.555 18.377C156.907 18.377 158.048 18.5883 158.978 18.9686C159.908 19.3489 160.668 19.8983 161.26 20.5322C161.852 21.2084 162.274 22.0114 162.528 22.9411C162.781 23.8708 162.908 24.8851 162.908 25.9416V38.8311C162.655 38.9156 162.274 39.0001 161.767 39.0846C161.26 39.1692 160.668 39.2959 160.034 39.3805C159.358 39.465 158.64 39.5918 157.837 39.634C157.034 39.7185 156.189 39.7185 155.343 39.7185C154.245 39.7185 153.273 39.5918 152.343 39.3805C151.413 39.1269 150.653 38.7465 149.976 38.2394C149.3 37.7323 148.793 37.0561 148.413 36.2532C148.032 35.4502 147.821 34.4782 147.821 33.2949C147.821 32.1962 148.032 31.2242 148.455 30.4635C148.878 29.6605 149.469 29.0266 150.23 28.5195C150.991 28.0124 151.92 27.632 152.977 27.3785C154.033 27.1249 155.174 27.0404 156.4 27.0404C156.78 27.0404 157.161 27.0404 157.583 27.0826C158.006 27.1249 158.386 27.1672 158.767 27.2517C159.147 27.3362 159.485 27.3785 159.739 27.463C160.034 27.5475 160.203 27.5898 160.33 27.632V26.3642C160.33 25.6458 160.288 24.9696 160.161 24.2934C160.077 23.6173 159.823 23.0256 159.485 22.4762C159.147 21.9268 158.64 21.5042 157.964 21.1662C157.33 20.8281 156.484 20.659 155.428 20.659C153.907 20.659 152.808 20.7858 152.047 20.9971C151.286 21.2084 150.779 21.3775 150.441 21.5042L150.103 19.2644C150.568 19.0531 151.244 18.8418 152.174 18.6728C153.104 18.4615 154.245 18.377 155.555 18.377ZM155.808 37.4365C156.823 37.4365 157.668 37.3942 158.428 37.3519C159.189 37.2674 159.823 37.1829 160.33 37.0984V29.9141C160.034 29.7873 159.569 29.6605 158.936 29.4915C158.302 29.3647 157.414 29.2802 156.315 29.2802C155.682 29.2802 155.005 29.3224 154.329 29.407C153.653 29.4915 153.019 29.7028 152.427 29.9986C151.836 30.2944 151.371 30.717 150.991 31.2664C150.61 31.8158 150.441 32.492 150.441 33.3795C150.441 34.1401 150.568 34.7741 150.822 35.3234C151.075 35.8728 151.413 36.2532 151.878 36.5913C152.343 36.8871 152.892 37.1406 153.526 37.2674C154.245 37.3942 154.963 37.4365 155.808 37.4365Z" fill="white"/>
<path d="M173.558 37.4785C175.037 37.4785 176.262 37.2249 177.234 36.7601C178.206 36.253 178.671 35.45 178.671 34.2667C178.671 33.7173 178.587 33.2525 178.418 32.8298C178.249 32.4495 177.953 32.0692 177.572 31.7733C177.192 31.4775 176.643 31.1394 176.009 30.8436C175.375 30.5478 174.572 30.2097 173.6 29.8293C172.839 29.4913 172.121 29.1954 171.402 28.8574C170.726 28.5193 170.092 28.1389 169.585 27.7163C169.036 27.2937 168.655 26.7443 168.317 26.1527C168.021 25.561 167.852 24.8003 167.852 23.9551C167.852 22.307 168.486 20.9546 169.712 19.8981C170.98 18.8839 172.67 18.3345 174.868 18.3345C176.262 18.3345 177.403 18.4613 178.333 18.6726C179.263 18.9261 179.897 19.1374 180.235 19.3065L179.643 21.5885C179.347 21.4195 178.798 21.2082 178.037 20.9546C177.277 20.7011 176.178 20.5743 174.741 20.5743C174.149 20.5743 173.6 20.6165 173.093 20.7433C172.586 20.8701 172.121 21.0391 171.74 21.2927C171.36 21.5463 171.022 21.8421 170.811 22.2647C170.557 22.6451 170.473 23.1099 170.473 23.6593C170.473 24.2087 170.557 24.6736 170.811 25.0962C171.022 25.4765 171.318 25.8569 171.74 26.1527C172.163 26.4485 172.67 26.7443 173.262 26.9979C173.853 27.2515 174.53 27.5473 175.29 27.8854C176.093 28.1812 176.854 28.5193 177.572 28.8574C178.291 29.1954 178.925 29.5758 179.474 30.0406C180.023 30.5055 180.488 31.0549 180.826 31.6888C181.165 32.3227 181.334 33.1257 181.334 34.1399C181.334 35.9994 180.657 37.394 179.263 38.3237C177.868 39.2535 175.966 39.7606 173.6 39.7606C171.825 39.7606 170.43 39.5915 169.501 39.2957C168.571 38.9999 167.937 38.7463 167.599 38.6195L168.275 36.2952C168.36 36.3375 168.529 36.422 168.782 36.5488C169.036 36.6756 169.416 36.8023 169.839 36.9291C170.304 37.0559 170.811 37.1827 171.445 37.3095C172.036 37.4363 172.755 37.4785 173.558 37.4785Z" fill="white"/>
<path d="M186.025 39.3382V9.07961L188.603 8.61475V19.4757C189.448 19.1799 190.293 18.9263 191.18 18.7573C192.068 18.5882 192.913 18.5037 193.801 18.5037C195.364 18.5037 196.717 18.715 197.773 19.1799C198.83 19.6448 199.675 20.2787 200.309 21.0816C200.943 21.9268 201.365 22.8988 201.619 24.0821C201.872 25.2231 201.999 26.5332 201.999 27.9278V39.3804H199.421V28.6885C199.421 27.2517 199.337 26.0261 199.125 25.0118C198.914 23.9976 198.576 23.1946 198.153 22.5607C197.689 21.9268 197.097 21.462 196.294 21.2084C195.533 20.9126 194.561 20.7858 193.42 20.7858C192.955 20.7858 192.491 20.828 191.983 20.9126C191.476 20.9971 190.969 21.0816 190.547 21.1661C190.082 21.2507 189.701 21.3352 189.321 21.462C188.983 21.5465 188.729 21.631 188.645 21.7155V39.3382H186.025Z" fill="white"/>
<path d="M33.0159 9.10053C32.5503 10.0741 31.4497 10.455 30.4762 10.0317C29.5026 9.56614 29.1217 8.46561 29.545 7.49206C30.0106 6.51852 31.1111 6.13757 32.0847 6.56085C33.0582 7.02646 33.4815 8.16931 33.0159 9.10053ZM26.328 4.91005C25.2698 4.78307 24.3386 5.54497 24.2116 6.56085C24.0847 7.61905 24.8466 8.55026 25.8624 8.67725C26.9206 8.80423 27.8519 8.04233 27.9788 7.02645C28.1058 6.01058 27.3862 5.07936 26.328 4.91005ZM20.3175 5.12169C19.3016 5.33333 18.6243 6.30688 18.7936 7.36508C19.0053 8.38095 19.9788 9.0582 21.037 8.88889C22.0529 8.67725 22.7302 7.7037 22.5608 6.6455C22.3492 5.62963 21.3333 4.95238 20.3175 5.12169ZM14.6878 7.19577C13.7566 7.7037 13.418 8.84656 13.9259 9.77778C14.4339 10.709 15.5767 11.0476 16.5079 10.5397C17.4392 10.0317 17.7778 8.88889 17.2698 7.95767C16.7619 7.02645 15.5767 6.68783 14.6878 7.19577ZM9.94709 10.8783C9.22751 11.6402 9.26984 12.8677 10.0317 13.5873C10.7937 14.3069 12.0212 14.2645 12.7407 13.5026C13.4603 12.7407 13.418 11.5132 12.6561 10.7937C11.8519 10.0741 10.6667 10.1164 9.94709 10.8783ZM6.60317 15.873C6.13757 16.8466 6.56085 17.9471 7.53439 18.4127C8.50794 18.8783 9.60847 18.455 10.0741 17.4815C10.5397 16.5079 10.1164 15.4074 9.14286 14.9418C8.16931 14.5185 7.02645 14.9418 6.60317 15.873ZM4.91005 21.6296C4.78307 22.6878 5.54497 23.619 6.56085 23.746C7.61905 23.873 8.55026 23.1111 8.67725 22.0952C8.80423 21.037 8.04233 20.1058 7.02645 19.9788C6.01058 19.8519 5.07936 20.6138 4.91005 21.6296ZM5.12169 27.6402C5.33333 28.6561 6.30688 29.3333 7.36508 29.164C8.38095 28.9524 9.0582 27.9788 8.88889 26.9206C8.67725 25.9048 7.7037 25.2275 6.6455 25.3968C5.62963 25.6085 4.95238 26.6243 5.12169 27.6402ZM7.19577 33.3122C7.7037 34.2434 8.84656 34.582 9.77778 34.0741C10.709 33.5661 11.0476 32.4233 10.5397 31.4921C10.0317 30.5608 8.88889 30.2222 7.95767 30.7302C7.02645 31.1958 6.68783 32.381 7.19577 33.3122ZM10.8783 38.0106C11.6402 38.7302 12.8677 38.6878 13.5873 37.9259C14.3069 37.164 14.2645 35.9365 13.5026 35.2169C12.7407 34.4974 11.5132 34.5397 10.7937 35.3016C10.0741 36.1058 10.1164 37.291 10.8783 38.0106ZM15.873 41.3968C16.8466 41.8624 17.9471 41.4392 18.4127 40.4656C18.8783 39.4921 18.455 38.3915 17.4815 37.9259C16.5079 37.4603 15.4074 37.8836 14.9418 38.8571C14.5185 39.7884 14.9418 40.9312 15.873 41.3968ZM21.6296 43.0476C22.6878 43.1746 23.619 42.4127 23.746 41.3968C23.873 40.3386 23.1111 39.4074 22.0952 39.2804C21.037 39.1534 20.1058 39.9153 19.9788 40.9312C19.8519 41.9471 20.6138 42.9206 21.6296 43.0476ZM27.6402 42.836C28.6561 42.6243 29.3333 41.6508 29.164 40.5926C28.9524 39.5767 27.9788 38.8995 26.9206 39.0688C25.9048 39.2804 25.2275 40.254 25.3968 41.3122C25.6085 42.3704 26.6243 43.0476 27.6402 42.836ZM33.3122 40.7619C34.2434 40.254 34.582 39.1111 34.0741 38.1799C33.5661 37.2487 32.4233 36.9101 31.4921 37.418C30.5608 37.9259 30.2222 39.0688 30.7302 40C31.1958 40.9312 32.381 41.2698 33.3122 40.7619ZM38.0106 37.0794C38.7302 36.3175 38.6878 35.0899 37.9259 34.3704C37.164 33.6508 35.9365 33.6931 35.2169 34.455C34.4974 35.2169 34.5397 36.4444 35.3016 37.164C36.1058 37.8836 37.291 37.8413 38.0106 37.0794ZM41.3968 32.0847C41.8624 31.1111 41.4392 30.0106 40.4656 29.545C39.4921 29.0794 38.3915 29.5026 37.9259 30.4762C37.4603 31.4497 37.8836 32.5503 38.8571 33.0159C39.7884 33.4815 40.9312 33.0582 41.3968 32.0847ZM43.0476 26.328C43.1746 25.2698 42.4127 24.3386 41.3968 24.2116C40.3386 24.0847 39.4074 24.8466 39.2804 25.8624C39.1534 26.9206 39.9153 27.8519 40.9312 27.9788C41.9471 28.1058 42.9206 27.3862 43.0476 26.328ZM42.836 20.3175C42.6243 19.3016 41.6508 18.6243 40.5926 18.7936C39.5767 19.0053 38.8995 19.9788 39.0688 21.037C39.2804 22.0529 40.254 22.7302 41.3122 22.5608C42.3704 22.3492 43.0476 21.3333 42.836 20.3175ZM40.7619 14.6878C40.254 13.7566 39.1111 13.418 38.1799 13.9259C37.2487 14.4339 36.9101 15.5767 37.418 16.5079C37.9259 17.4392 39.0688 17.7778 40 17.2698C40.9735 16.7619 41.2698 15.5767 40.7619 14.6878ZM37.0794 9.94709C36.3175 9.22751 35.0899 9.26984 34.3704 10.0317C33.6508 10.7937 33.6931 12.0212 34.455 12.7407C35.2169 13.4603 36.4444 13.418 37.164 12.6561C37.8836 11.8519 37.8413 10.6667 37.0794 9.94709ZM24 0C22.6878 0 21.6296 1.0582 21.6296 2.37037C21.6296 3.68254 22.6878 4.74074 24 4.74074C25.3122 4.74074 26.3704 3.68254 26.3704 2.37037C26.3704 1.0582 25.3122 0 24 0ZM16.5503 1.18519C15.2804 1.60847 14.6032 2.92064 15.0265 4.19048C15.4497 5.46032 16.7619 6.13757 18.0317 5.71429C19.3016 5.29101 19.9788 3.97884 19.5556 2.70899C19.1746 1.43915 17.8201 0.761905 16.5503 1.18519ZM9.86243 4.57143C8.80423 5.33333 8.55026 6.81482 9.3545 7.91534C10.1164 8.97355 11.5979 9.22751 12.6984 8.42328C13.7566 7.66137 14.0106 6.17989 13.2063 5.07937C12.4444 4.02116 10.963 3.80952 9.86243 4.57143ZM4.57143 9.90476C3.80952 10.963 4.02116 12.4444 5.07937 13.2487C6.13757 14.0106 7.61905 13.7989 8.42328 12.7407C9.18518 11.6825 8.97355 10.2011 7.91534 9.39683C6.81482 8.59259 5.33333 8.80423 4.57143 9.90476ZM1.14286 16.5926C0.719577 17.8624 1.43915 19.1746 2.66667 19.5979C3.93651 20.0212 5.24868 19.3016 5.67196 18.0741C6.09524 16.8042 5.37566 15.4921 4.14815 15.0688C2.92063 14.6455 1.56614 15.3228 1.14286 16.5926ZM0 24C0 25.3122 1.0582 26.3704 2.37037 26.3704C3.68254 26.3704 4.74074 25.3122 4.74074 24C4.74074 22.6878 3.68254 21.6296 2.37037 21.6296C1.0582 21.5873 0 22.6878 0 24ZM1.18519 31.4074C1.60847 32.6772 2.92064 33.3545 4.19048 32.9312C5.46032 32.5079 6.13757 31.1958 5.71429 29.9259C5.29101 28.6561 3.97884 27.9788 2.70899 28.4021C1.43915 28.8254 0.761905 30.1376 1.18519 31.4074ZM4.57143 38.0952C5.33333 39.1534 6.81482 39.4074 7.91534 38.6032C8.97355 37.8413 9.22751 36.3598 8.42328 35.2593C7.66137 34.2011 6.17989 33.9471 5.07937 34.7513C4.02116 35.5556 3.80952 37.037 4.57143 38.0952ZM9.90476 43.3862C10.963 44.1481 12.4444 43.9365 13.2487 42.8783C14.0106 41.8201 13.7989 40.3386 12.7407 39.5344C11.6825 38.7725 10.2011 38.9841 9.39683 40.0423C8.59259 41.1429 8.80423 42.6243 9.90476 43.3862ZM16.5926 46.8148C17.8624 47.2381 19.1746 46.5185 19.5979 45.291C20.0212 44.0212 19.3016 42.709 18.0741 42.2857C16.8042 41.8624 15.4921 42.582 15.0688 43.8095C14.6455 45.037 15.3228 46.3915 16.5926 46.8148ZM24 48C25.3122 48 26.3704 46.9418 26.3704 45.6296C26.3704 44.3175 25.3122 43.2593 24 43.2593C22.6878 43.2593 21.6296 44.3175 21.6296 45.6296C21.5873 46.8995 22.6878 48 24 48ZM31.4074 46.8148C32.6772 46.3915 33.3545 45.0794 32.9312 43.8095C32.5079 42.5397 31.1958 41.8624 29.9259 42.2857C28.6561 42.709 27.9788 44.0212 28.4021 45.291C28.8254 46.5185 30.1376 47.1958 31.4074 46.8148ZM38.0952 43.3862C39.1534 42.6243 39.4074 41.1429 38.6032 40.0423C37.8413 38.9841 36.3598 38.7302 35.2593 39.5344C34.2011 40.2963 33.9471 41.7778 34.7513 42.8783C35.5556 43.9365 37.037 44.1905 38.0952 43.3862ZM43.3862 38.0952C44.1481 37.037 43.9365 35.5556 42.8783 34.7513C41.8201 33.9894 40.3386 34.2011 39.5344 35.2593C38.7725 36.3175 38.9841 37.7989 40.0423 38.6032C41.1429 39.4074 42.6243 39.1534 43.3862 38.0952ZM46.8148 31.4074C47.2381 30.1376 46.5185 28.8254 45.291 28.4021C44.0212 27.9788 42.709 28.6984 42.2857 29.9259C41.8624 31.1958 42.582 32.5079 43.8095 32.9312C45.037 33.3545 46.3915 32.6349 46.8148 31.4074ZM48 24C48 22.6878 46.9418 21.6296 45.6296 21.6296C44.3175 21.6296 43.2593 22.6878 43.2593 24C43.2593 25.3122 44.3175 26.3704 45.6296 26.3704C46.8995 26.3704 48 25.3122 48 24ZM46.8148 16.5503C46.3915 15.2804 45.0794 14.6032 43.8095 15.0265C42.5397 15.4497 41.8624 16.7619 42.2857 18.0317C42.709 19.3016 44.0212 19.9788 45.291 19.5556C46.5185 19.1746 47.1958 17.8201 46.8148 16.5503ZM43.3862 9.86243C42.6243 8.80423 41.1429 8.55026 40.0423 9.3545C38.9841 10.1164 38.7302 11.5979 39.5344 12.6984C40.2963 13.7566 41.7778 14.0106 42.8783 13.2063C43.9365 12.4444 44.1905 10.963 43.3862 9.86243ZM38.0952 4.57143C37.037 3.80952 35.5556 4.02116 34.7513 5.07937C33.9894 6.13757 34.2011 7.61905 35.2593 8.42328C36.3175 9.18518 37.7989 8.97355 38.6032 7.91534C39.4074 6.81482 39.1534 5.33333 38.0952 4.57143ZM31.4074 1.14286C30.1376 0.719577 28.8254 1.43915 28.4021 2.66667C27.9788 3.93651 28.6984 5.24868 29.9259 5.67196C31.1958 6.09524 32.5079 5.37566 32.9312 4.14815C33.3545 2.92063 32.6349 1.56614 31.4074 1.14286ZM32.5079 11.2169C31.7884 10.7513 30.8571 10.9206 30.3915 11.6402C29.9259 12.3598 30.0952 13.291 30.8148 13.7566C31.5344 14.2222 32.4656 14.0529 32.9312 13.3333C33.3968 12.6138 33.2275 11.6825 32.5079 11.2169ZM28.1481 9.18519C27.3439 8.97355 26.4974 9.43915 26.2857 10.2434C26.0741 11.0476 26.5397 11.8942 27.3439 12.1058C28.1481 12.3175 28.9947 11.8519 29.2063 11.0476C29.418 10.2857 28.9524 9.43915 28.1481 9.18519ZM23.3651 8.63492C22.5185 8.67725 21.8836 9.39682 21.8836 10.2011C21.9259 11.0476 22.6455 11.6825 23.4497 11.6825C24.2963 11.6402 24.9312 10.9206 24.9312 10.1164C24.9312 9.26984 24.2116 8.59259 23.3651 8.63492ZM18.6667 9.56614C17.8624 9.86243 17.4815 10.7513 17.7778 11.5132C18.0741 12.3175 18.963 12.6984 19.7249 12.4021C20.5291 12.1058 20.9101 11.2169 20.6138 10.455C20.3175 9.69312 19.4709 9.26984 18.6667 9.56614ZM14.4762 11.9365C13.7989 12.4444 13.7143 13.418 14.2222 14.0952C14.7302 14.7725 15.7037 14.8571 16.381 14.3492C17.0582 13.8413 17.1429 12.8677 16.6349 12.1905C16.0847 11.5132 15.1534 11.3862 14.4762 11.9365ZM11.2169 15.4497C10.7513 16.1693 10.9206 17.1005 11.6402 17.5661C12.3598 18.0317 13.291 17.8624 13.7566 17.1429C14.2222 16.4233 14.0529 15.4921 13.3333 15.0265C12.6138 14.5608 11.6825 14.7725 11.2169 15.4497ZM9.18519 19.8095C8.97355 20.6138 9.43915 21.4603 10.2434 21.672C11.0476 21.8836 11.8942 21.418 12.1058 20.6138C12.3175 19.8095 11.8519 18.963 11.0476 18.7513C10.2857 18.5397 9.43915 19.0053 9.18519 19.8095ZM8.63492 24.5926C8.67725 25.4392 9.39682 26.0741 10.2011 26.0741C11.0476 26.0317 11.6825 25.3122 11.6825 24.5079C11.6402 23.6614 10.9206 23.0265 10.1164 23.0265C9.26984 23.0265 8.59259 23.746 8.63492 24.5926ZM9.56614 29.291C9.86243 30.0952 10.7513 30.4762 11.5132 30.1799C12.3175 29.8836 12.6984 28.9947 12.4021 28.2328C12.1058 27.4286 11.2169 27.0476 10.455 27.3439C9.69312 27.6402 9.26984 28.5291 9.56614 29.291ZM11.9365 33.4815C12.4444 34.1587 13.418 34.2434 14.0952 33.7355C14.7725 33.2275 14.8571 32.254 14.3492 31.5767C13.8413 30.8995 12.8677 30.8148 12.1905 31.3228C11.5132 31.873 11.3862 32.8466 11.9365 33.4815ZM15.4497 36.7407C16.1693 37.2063 17.1005 37.037 17.5661 36.3175C18.0317 35.5979 17.8624 34.6667 17.1429 34.2011C16.4233 33.7355 15.4921 33.9048 15.0265 34.6243C14.5608 35.3439 14.7725 36.2751 15.4497 36.7407ZM19.8095 38.7725C20.6138 38.9841 21.4603 38.5185 21.672 37.7143C21.8836 36.9101 21.418 36.0635 20.6138 35.8519C19.8095 35.6402 18.963 36.1058 18.7513 36.9101C18.5397 37.7143 19.0053 38.5185 19.8095 38.7725ZM24.5926 39.3228C25.4392 39.2804 26.0741 38.5608 26.0741 37.7566C26.0317 36.9101 25.3122 36.2751 24.5079 36.2751C23.6614 36.3175 23.0265 37.037 23.0265 37.8413C23.0265 38.6878 23.746 39.3651 24.5926 39.3228ZM29.291 38.3915C30.0952 38.0952 30.4762 37.2064 30.1799 36.4444C29.8836 35.6402 28.9947 35.2593 28.2328 35.5556C27.4286 35.8519 27.0476 36.7407 27.3439 37.5026C27.6402 38.2646 28.5291 38.6878 29.291 38.3915ZM33.4815 36.0635C34.1587 35.5556 34.2434 34.582 33.7355 33.9048C33.2275 33.2275 32.254 33.1429 31.5767 33.6508C30.8995 34.1587 30.8148 35.1323 31.3228 35.8095C31.873 36.4444 32.8466 36.5714 33.4815 36.0635ZM36.7407 32.5079C37.2063 31.7884 37.037 30.8571 36.3175 30.3915C35.5979 29.9259 34.6667 30.0952 34.2011 30.8148C33.7355 31.5344 33.9048 32.4656 34.6243 32.9312C35.3439 33.3968 36.2751 33.2275 36.7407 32.5079ZM38.7725 28.1481C38.9841 27.3439 38.5185 26.4974 37.7143 26.2857C36.9101 26.0741 36.0635 26.5397 35.8519 27.3439C35.6402 28.1481 36.1058 28.9947 36.9101 29.2063C37.7143 29.418 38.5608 28.9524 38.7725 28.1481ZM39.3228 23.3651C39.2804 22.5185 38.5608 21.8836 37.7566 21.8836C36.9101 21.9259 36.2751 22.6455 36.2751 23.4497C36.3175 24.2963 37.037 24.9312 37.8413 24.9312C38.7302 24.9312 39.3651 24.2116 39.3228 23.3651ZM38.3915 18.6667C38.0952 17.8624 37.2064 17.4815 36.4444 17.7778C35.6402 18.0741 35.2593 18.963 35.5556 19.7249C35.8519 20.5291 36.7407 20.9101 37.5026 20.6138C38.2646 20.3175 38.6878 19.4709 38.3915 18.6667ZM36.0635 14.4762C35.5556 13.7989 34.582 13.7143 33.9048 14.2222C33.2275 14.7302 33.1429 15.7037 33.6508 16.381C34.1587 17.0582 35.1323 17.1429 35.8095 16.6349C36.4444 16.0847 36.5714 15.1534 36.0635 14.4762Z" fill="url(#paint0_linear_274_61)"/>
<defs>
<linearGradient id="paint0_linear_274_61" x1="7.20567" y1="7.20453" x2="40.7675" y2="40.7664" gradientUnits="userSpaceOnUse">
<stop offset="0.2" stop-color="white"/>
<stop offset="0.8" stop-color="white"/>
</linearGradient>
</defs>
</svg>
